<?xml version="1.0" encoding="UTF-8" standalone="no"?>
<!-- Created with Inkscape (http://www.inkscape.org/) -->

<svg
   width="26.488815"
   height="37.456615"
   viewBox="0 0 7.0084989 9.9103961"
   version="1.1"
   id="svg1"
   xmlns:xlink="http://www.w3.org/1999/xlink"
   xmlns="http://www.w3.org/2000/svg"
   xmlns:svg="http://www.w3.org/2000/svg">
  <defs
     id="defs1">
    <linearGradient
       id="linearGradient17-1">
      <stop
         style="stop-color:#124a7d;stop-opacity:1"
         offset="0.30222222"
         id="stop17" />
      <stop
         style="stop-color:#00b2ff;stop-opacity:1;"
         offset="0.77469319"
         id="stop18" />
    </linearGradient>
    <linearGradient
       xlink:href="#linearGradient17-1"
       id="linearGradient18"
       x1="49.961327"
       y1="5.3113952"
       x2="49.961063"
       y2="20.433918"
       gradientUnits="userSpaceOnUse"
       gradientTransform="matrix(0.73665527,0,0,0.63653199,13.195727,1.8286674)" />
  </defs>
  <g
     id="layer1"
     transform="translate(-46.495637,-5.067327)">
    <path
       id="path15"
       style="fill:url(#linearGradient18);stroke:#00b2ff;stroke-width:0.284427;stroke-dasharray:none;stroke-opacity:1"
       d="m 50.000001,5.2095402 c -2.721561,0 -3.362151,1.6932996 -3.362151,2.9844471 0,1.2911473 0.74735,2.1603257 1.494466,2.8058987 0.74712,0.645571 0.746891,1.291146 0.746891,1.291146 h 2.241359 c 0,0 2e-6,-0.645575 0.747119,-1.291146 0.67513,-0.58337 1.494238,-1.5147514 1.494238,-2.8058987 0,-1.2911475 -0.746912,-2.9844471 -3.361922,-2.9844471 z m -0.02163,0.9357746 c 1.500594,6.11e-4 1.889017,0.9811075 1.889112,1.6266799 1.89e-4,1.291167 -1.494147,1.291169 -1.494147,1.9366028 V 10.354466 H 49.626272 V 9.7085975 c -9.4e-5,-1.1413038 1.494146,-1.1947541 1.494146,-1.9366028 0,-0.741848 -0.741585,-0.9417316 -1.115014,-0.9374426 -0.373674,0.00429 -0.82961,0.048188 -1.126206,0.5274366 -0.249578,0.4032729 -0.898024,0.1352217 -0.747075,-0.2355283 0.07009,-0.1843733 0.382202,-0.9817416 1.846258,-0.9811456 z M 50.000001,11 c 0.206143,1.02e-4 0.373224,0.144476 0.373345,0.322601 9.5e-5,0.178255 -0.167051,0.32283 -0.373345,0.322934 -0.206443,8.1e-5 -0.373823,-0.144548 -0.373729,-0.322934 1.2e-4,-0.178254 0.167436,-0.322682 0.373729,-0.322601 z m -1.120803,1.898906 v 0.645534 h 2.24122 v -0.645534 z m 0,1.29107 c 0,0 -4.4e-5,0.645534 0.747074,0.645534 h 0.747074 c 0.747116,0 0.747072,-0.645534 0.747072,-0.645534 z" />
  </g>
</svg>
